<svg data-v-0dd9719b="" version="1.0" xmlns="http://www.w3.org/2000/svg" xmlns:xlink="http://www.w3.org/1999/xlink" width="100%" height="100%" viewBox="0 0 340.000000 250.000000" preserveAspectRatio="xMidYMid meet" color-interpolation-filters="sRGB" style="margin: auto;"> <rect data-v-0dd9719b="" x="0" y="0" width="100%" height="100%" fill="#fff" fill-opacity="1" class="background"></rect> <rect data-v-0dd9719b="" x="0" y="0" width="100%" height="100%" fill="url(#watermark)" fill-opacity="1" class="watermarklayer"></rect> <g data-v-0dd9719b="" fill="#333" class="icon-text-wrapper icon-svg-group iconsvg" transform="translate(48.78999328613281,94.58637428283691)"><g class="iconsvg-imagesvg" transform="translate(0,0)"><g><rect fill="#333" fill-opacity="0" stroke-width="2" x="0" y="0" width="60" height="60.8272506082725" class="image-rect"></rect> <svg x="0" y="0" width="60" height="60.8272506082725" filtersec="colorsb78841938" class="image-svg-svg primary" style="overflow: visible;"><svg xmlns="http://www.w3.org/2000/svg" viewBox="-0.01667151227593422 -0.0010506667895242572 98.62667083740234 99.98663330078125"><path d="M4.5 70.71a49.73 49.73 0 0 0 13.39 17.61L97.16 46.7z" fill="#2a3d8f"></path><path d="M19.15 89.34a50 50 0 0 0 79.46-27.68z" fill="#272660"></path><path d="M76.66 7.71A50 50 0 0 0 0 51.29l82.29-39.45a51 51 0 0 0-5.63-4.13z" fill="#29aae1"></path><path d="M88 25L.06 52.31A50.25 50.25 0 0 0 4.15 70z" fill="#1f76bb"></path></svg></svg> <!----></g></g> <g transform="translate(67,16.053624153137207)"><g data-gra="path-name" fill-rule="" class="tp-name iconsvg-namesvg"><g transform="scale(1)"><g><path d="M27.43 0L19.95-10.22C23.33-11.46 24.82-14.08 24.82-18.58 24.82-25.22 21.12-27.92 14-27.92L2.65-27.92 2.65 0 10.66 0 10.66-9.37 12.23-9.37 17.98 0ZM10.66-21.8L12.59-21.8C15.85-21.8 16.93-21.16 16.93-18.58 16.93-15.97 15.85-15.08 12.59-15.08L10.66-15.08ZM29.89 0L37.89 0 37.89-27.92 29.89-27.92ZM43.2 0L54.5 0C63.23 0 65.6-3.1 65.6-8.13 65.6-11.83 63.71-13.64 60.82-14.56L60.82-14.72C63.87-15.57 64.88-17.42 64.88-20.31 64.88-25.34 62.43-27.92 53.62-27.92L43.2-27.92ZM51.2-16.93L51.2-21.64 52.69-21.64C55.71-21.64 56.92-21.32 56.92-19.35 56.92-17.26 55.71-16.93 52.69-16.93ZM51.2-6.32L51.2-11.38 53.3-11.38C56.59-11.38 57.52-10.7 57.52-8.77 57.52-6.8 56.55-6.32 53.3-6.32ZM82.54 0.4C90.38 0.4 95.13-2.33 95.13-9.45L95.13-27.92 87.16-27.92 87.16-10.02C87.16-8.53 86.52-6.44 82.54-6.44 78.68-6.44 77.99-8.21 77.99-10.02L77.99-27.92 69.99-27.92 69.99-9.45C69.99-1.61 74.69 0.4 82.54 0.4ZM108.36-6.88L108.36-27.92 100.36-27.92 100.36 0 118.7 0 118.7-6.88ZM134.67 0.4C142.51 0.4 147.26-2.33 147.26-9.45L147.26-27.92 139.29-27.92 139.29-10.02C139.29-8.53 138.65-6.44 134.67-6.44 130.81-6.44 130.12-8.21 130.12-10.02L130.12-27.92 122.12-27.92 122.12-9.45C122.12-1.61 126.82 0.4 134.67 0.4ZM164.92 0.4C173.24 0.4 178.07-2.45 178.07-13.96 178.07-25.42 173.24-28.32 164.92-28.32 156.63-28.32 151.76-25.42 151.76-13.96 151.76-2.45 156.63 0.4 164.92 0.4ZM164.92-6.19C161.09-6.19 160.21-7.96 160.21-13.96 160.21-20.03 161.09-21.84 164.92-21.84 168.74-21.84 169.66-20.03 169.66-13.96 169.66-7.96 168.74-6.19 164.92-6.19Z" transform="translate(-2.6500000953674316, 28.320003509521484)"></path></g> <!----> <!----> <!----> <!----> <!----> <!----> <!----></g></g> <!----></g></g><defs v-gra="od"></defs></svg>